<svg height="456pt" viewBox="0 -68 456 456" width="456pt" xmlns="http://www.w3.org/2000/svg"><path d="m157.296875 82.847656c5.582031 5.3125 11.398437 10.359375 17.503906 15.046875 18.902344 14.546875 40.085938 25.832031 62.496094 33.632813l18.703125-37.414063v-5.144531c0-8.816406-3.433594-17.089844-9.65625-23.3125-6.144531-6.136719-14.640625-9.65625-23.3125-9.65625h-5.328125zm0 0"/><path d="m211.390625 41.289062 3.554687-3.5625c5.238282-5.230468 7.503907-12.695312 6.046876-19.957031-1.472657-7.378906-6.679688-13.363281-13.609376-16.105469-32.175781 3.222657-63.453124 11.28125-93.472656 23.953126 8.578125 16.199218 19.1875 31.359374 31.480469 45zm0 0"/><path d="m328.96875 93.433594c-16.234375-8.113282-36.433594-6.839844-51.488281 3.199218l-7.273438 4.847657-17.382812 34.765625c18.695312 5.035156 38.03125 7.753906 57.503906 7.753906 14.664063 0 29.328125-.550781 43.96875-1.527344l-24.257813-48.511718zm0 0"/><path d="m344 78.320312v7.792969l27.496094 55c24.0625-2.234375 48-5.777343 71.65625-10.609375l-8.03125-14.726562c-9.714844-17.800782-21.96875-34.210938-36.136719-48.738282l-11.824219-9.453124c-10.585937-8.496094-25.792968-7.632813-35.375 1.949218-5.023437 5.007813-7.785156 11.679688-7.785156 18.785156zm0 0"/><path d="m232.472656 40.902344c9.480469 1.839844 18.199219 6.457031 25.183594 13.441406 7.472656 7.472656 12.230469 16.921875 13.785156 27.175781 16.832032-10.078125 37.964844-12.238281 56.636719-5.792969.617187-10.398437 4.960937-20.085937 12.394531-27.511718 6.128906-6.136719 13.710938-9.925782 21.679688-11.535156-36.359375-23.9375-78.390625-36.679688-122.03125-36.679688-3.226563 0-6.425782.160156-9.632813.257812 2.984375 4.253907 5.144531 9.117188 6.191407 14.375 1.824218 9.121094.265624 18.40625-4.207032 26.269532zm0 0"/><path d="m384 192-5.601562-4.199219c-11.453126 1.070313-22.917969 1.902344-34.398438 2.550781v16.953126c0 12.878906 6.265625 25.054687 16.753906 32.550781l32.734375 23.382812c2.550781 1.808594 6.511719-.230469 6.511719-3.359375v-35.878906c0-12.519531-5.984375-24.488281-16-32zm0 0"/><path d="m455.199219 152.585938-4.039063-7.410157c-46.144531 9.792969-93.519531 14.824219-140.832031 14.824219-52.273437 0-103.863281-17.542969-145.289063-49.414062-27.246093-20.960938-49.886718-48.074219-65.824218-78.539063l-.375.167969c-6.582032 3-10.839844 9.617187-10.839844 16.847656 0 3.167969.824219 6.304688 2.375 9.066406 40.898438 72.703125 118.121094 117.871094 201.546875 117.871094 50.0625 0 100.46875-4.167969 149.804687-12.398438l8.832032-1.472656c3.144531-.527344 5.441406-3.234375 5.441406-6.425781 0-1.085937-.273438-2.167969-.800781-3.117187zm0 0"/><path d="m84.425781 79.160156-21.609375-10.808594c-5.695312-2.847656-12.074218-4.351562-18.433594-4.351562-11 0-21.351562 4.289062-29.144531 12.070312l-10.804687 10.808594c-2.859375 2.855469-4.433594 6.65625-4.433594 10.707032 0 2.742187.742188 5.445312 2.160156 7.804687l3.273438 5.449219c9.308594 15.519531 26.34375 25.160156 44.4375 25.160156 8 0 16.015625-1.886719 23.175781-5.480469l14.488281-7.230469c4.296875-2.144531 9.121094-3.289062 13.929688-3.289062h16.167968c-12.375-12.296875-23.542968-25.953125-33.199218-40.863281zm-28.425781 16.839844h-16v-16h16zm0 0"/><path d="m184 176.761719v-9.691407c-7.65625-3.71875-15.089844-7.871093-22.320312-12.351562l-10.367188 12.960938c-9.871094 12.328124-15.3125 27.832031-15.3125 43.640624 0 12.144532 3.183594 24.128907 9.207031 34.664063 13.648438 23.886719 32.695313 44.976563 55.097657 60.976563l17.183593 12.269531c2.550781 1.808593 6.511719-.222657 6.511719-3.351563v-28.640625c0-18.277343-6.449219-36.078125-18.144531-50.117187-14.09375-16.914063-21.855469-38.34375-21.855469-60.359375zm0 0"/></svg>