<?xml version="1.0" encoding="utf-8"?>
<!-- Generator: Adobe Illustrator 19.0.0, SVG Export Plug-In . SVG Version: 6.00 Build 0)  -->
<svg version="1.1" xmlns="http://www.w3.org/2000/svg" xmlns:xlink="http://www.w3.org/1999/xlink" x="0px" y="0px"
	 viewBox="0 0 171.1 214.2" style="enable-background:new 0 0 171.1 214.2;" xml:space="preserve">
<style type="text/css">
	.st0{fill:#FFFFFF;}
	.st1{fill:#008451;}
	.st2{fill:#008450;}
	.st3{fill:none;stroke:#E2C62A;stroke-width:0.2186;}
	.st4{fill:#254476;}
	.st5{stroke:#000000;stroke-width:0.8516;}
	.st6{stroke:#000000;stroke-width:0.4032;}
</style>
<g id="Layer_2">
</g>
<g id="Layer_1">
	<g>
		<path class="st0" d="M151.3,57.9c1.4-0.5,2.6-0.5,3.9-0.4l6.4,0.8l-3.6,5.3c-1.3,2-2.1,3.8-2.2,4.1l-0.5,4.2c0,0-2.2-0.4-2.4-0.4
			l-0.2,0c0,8-1.5,15.7-4.1,22.8l0,0c0.5,0.9,0.9,1.6,1.2,2c0.3,0,1.8,0.1,1.8,0.1s0.4,3.2,0.4,3.2l0,0.7c0,1.7-0.6,3.3-2,4.1
			c-2.9,1.7-6.3-0.1-6.3-0.1c-11.3,19.1-32.1,32-55.9,32c-22.2,0-41.8-11.2-53.5-28.3l-0.1,0c-2.9-0.6-6.3-2.2-8.5-5.3
			c-0.9-1.3-1.4-2.7-1.4-4.2c0-3.2,1.9-5.6,2.2-6l-0.1-0.3C24.2,85.6,23,78.6,23,71.4C23,35.6,52,6.6,87.8,6.6
			c10.9,0,21.2,2.7,30.3,7.5c0,0,1.6-2.7,2.1-4.4c0.4-1.4,1.6-3.7,5.1-4.8c0.7-0.2,1.5-0.2,2.5-0.1c0,0,0.9,0.2,1.9-0.2
			c2.1-0.7,3.7-0.1,4.4,0c0.7,0.1,1.8,0,1.8,0c1-0.1,2.3,0,3.9,1.3c1.6,1.4,2.5,3.4,2.5,4.9c0,0,0.1,1-0.2,2.5
			c-0.2,1.2,0.3,1.5,0.3,2.9c0.1,1.3-0.3,1.7-0.6,2.2c-0.2,0.5-0.9,1.1-1.5,1.6c-0.6,0.5-0.8,1.1-1.4,1.5c-0.6,0.5-1.6,1.1-3.6,1
			c-1.1,0.8-2,1.4-2.8,1.8l0,0C141.7,33.3,148.4,44.9,151.3,57.9L151.3,57.9z"/>
		<g>
			<path class="st1" d="M138.8,15.3c-0.2-0.1-0.5-0.2-0.9,0c-0.5,0.2-1.1,0.5-2.6,0.1c-3.4-0.9-3.6,0-3.6,0l-0.6-0.4
				c0-0.2,0.1-0.4,0.3-0.6c0.8-0.8,2-0.6,3.9-0.1c2.7,0.7,3.3-0.5,3.3-0.5l0.1-0.7c0.3-5.9-3.5-4.9-3.5-4.9s-1.4,0.1-2.4-0.2
				c-1.3-0.5-3.8,0.7-4.8,0.5c-1-0.3-1.8-0.1-1.8-0.1c-2.9,0.7-3.2,3.9-3.2,3.9c-0.8-0.1-7.1,15.4-10.6,17.6c-1.9,1.2-5.6,0.5-7-1.2
				c-0.4-0.5-0.8-0.9-0.8-0.9l0.1-0.8c1.7,0.8,3.6,2.1,3.6,2.1c2.5-0.5,1.7-8.5,1.7-8.5c-0.2-2.6-2.1-2.7-4-2.4
				c-0.4,0.1-1.1,0.1-2,0.6c-0.6,0.3-1.1,0.4-1.1,0.4c-4.4,0.9-12.5-1.6-12.5-1.6c-9-2.8-14.9,4.1-14.9,4.1
				C65.4,22.4,61.9,30,61.9,30C56.7,38,46.2,45.8,46.2,45.8l1.1,2.2l2.1,2.8c0,0,0,0,0.1,0.1c0.2,1,0.7,2.4,0.7,2.4
				c3.6,11,0.2,12.5,1.3,14.3c0.2,0.4,1.1,1.1,1.9,1.6c3.1-0.6,6.2-1,9.5-1.1c0.4-3.8-2.4-8.3-2.4-8.3l1.7-0.8
				c3.2,1.6,8.3,3.5,9.4,4.6c0.8,0.8-0.3,3.2-0.3,5.1c3.1,0.5,6.2,1.3,9.1,2.3c0.1-0.3,0.2-0.6,0.2-0.6c0.4-1.4-1.3-4.9-0.8-5.2
				c0.5-0.4,5.2-0.4,8.3-1.4c2.5,0.3,5.3,0.6,5.6,2.7c0.3,2.1-1.4,3.4-1.1,5.9c0.2,0.7,0.5,2.1,0.9,3.4c3.2,0.7,6.5,1.1,10,1.1
				c1.1,0,2.2,0,3.3-0.1v-0.4c0-0.7-0.5-1-0.5-1c0.6-0.3,0.4-1.4,0.2-1.7c-0.1-0.4,0.3-3.5,0.3-3.5c0.1-0.5,1.6-7.3-5.1-12.9
				c0.4,0.2,1.1,0.6,2.4,0.8c3.7,0.7,5.7-1,4.7-1.7l-0.9-0.4c4.7-1,11.4,2.8,12.2,6.8c0.1,1,0.2,1.3,0,4.4c-0.2,3,0.2,4.3,0.2,4.3
				c-0.2-0.3-0.7,0.5,0.1,2.2c3.9-1.6,7.6-3.8,10.8-6.4c0-0.5-0.3-1-0.3-1c-0.4-3.2-0.4-8.7-0.4-8.7c-1.7-4.8-11.5-8.6-15.9-10.2
				c-2.1-0.8,0.9-4.6,0.9-4.6c4.4-2.6,14.5-20.9,14.5-20.9c0.9,0.3,4.6-2.6,4.6-2.6c1.5,0.5,2,0.1,2.3-0.2c0.4-0.3,1.3-1.5,1.3-1.5
				C139.1,17.2,139,16.1,138.8,15.3z M137.4,9.3c0.2,0,0.3,0.2,0.3,0.4c0,0.2-0.2,0.4-0.3,0.4c-0.2,0-0.3-0.2-0.3-0.4
				C137.1,9.5,137.2,9.3,137.4,9.3z M136.4,9.3c0.2,0,0.3,0.2,0.3,0.4c0,0.2-0.2,0.4-0.3,0.4c-0.2,0-0.3-0.2-0.3-0.4
				C136.1,9.5,136.2,9.3,136.4,9.3z M101.8,23.5c0,0.5,0.1,1.1,0.2,1.7c0.1,0.6,0.2,1.2,0.2,1.7c0,0.2-0.4,18-16,22.5
				c-0.5,3.2-2.5,5.4-5.8,6.7c-8.8,3.4-24.7-1.2-29.1-4.9l0.7-0.8c4.3,3.6,19.6,8,28.1,4.7c3.1-1.2,4.8-3.3,5.2-6.2l0-0.3l0.3-0.1
				c15.1-4.1,15.5-21.4,15.5-21.6c0-0.5-0.1-1-0.2-1.6c-0.3-1.9-0.6-4.2,2.1-5.4l0.4,0.9C102.2,21.5,101.8,22.4,101.8,23.5z
				 M129.5,10.7c-0.2-1.4,2-0.8,2-0.8l0.8,1.4l-0.4,0.7C131.9,12.1,129.6,12.1,129.5,10.7z"/>
		</g>
		<path class="st0" d="M131.5,85.2c-0.7,1.1-2,3.3-4.4,4.7c-0.2,0.1-0.4,0.2-0.6,0.3c-1.2,0.6-2.5,1-4.2,1.2c0,0-1.4-1.5-1.9-3.2
			c-1.9,0.1-3.1,4.4-7.1,5.7c-1.8,0.6-3.8,1-5.7,1.3c-4.4,0.4-8.9,0.5-13.5,0.3c-1.7-0.1-2.7-0.3-2.7-0.3
			c-5.1-1.6-1.2-16.2-1.2-16.2C86.7,76.7,75,91.8,75,91.8c-0.7,0.7-1.9,0.9-3.2,0.9c-6.4-1.4-8.6-2.8-11.9-3.7
			c-1.4-0.4-4.9-1.5-7.2-2.2c0.7-0.8,1.8-1.4,1.8-1.4c2.4-0.9,5.4-2.2,5.1-4c-0.3-1.8-7.6-4.6-10.3-4.5c-3.1,0.2-6,2.9-8.6,3.8
			c-4.7,1.7-7.5,7.7-7.5,7.7c-2.8,2.2-3.2,5-3.2,5c-0.4,1.7-2.9,4.3-1.1,6.8c2.4,3.4,7.7,4.8,9.9,3.8c2.6-1,2.7-5.4,4.5-6.1
			c1,0.1,3.3,3.2,5.3,4.8c0.9,0.8,1.8,1.5,2.7,2.1c-0.1-1.2,0.2-2.8,1.9-4.3l0.5,0.6c-1.9,1.8-1.8,3.5-1.5,4.4
			c0.7,0.5,1.4,0.9,2,1.3c-0.3-1.1-0.4-2.9,1.2-4.8l0.6,0.5c-2,2.4-1,4.4-0.7,5c0.6,0.3,1.2,0.6,1.8,0.9c-0.4-1.1-0.7-3,1.1-5.1
			l0.6,0.5c-2.3,2.8-0.6,5-0.5,5.1l0,0c0.6,0.3,1,0.4,1,0.4c2,6.2,8.5,14,11.7,16.3c3.3,2.3,4,0.4,4,0.4c-4.1-4.3-2.9-11.5-2.9-11.5
			c1.5,0.2,3.1,0.3,4.7,0.4c5.2,0.8,12.5,0.9,20.4-0.7c2.3,1.4,9.9,5,8.2,2.5c-1.7-2.5-1-4-0.7-4.5c0.3-0.1,0.6-0.2,0.8-0.3
			c2.6-0.5,5.1-1.7,7.1-3c2.5-1.2,4.9-2.6,7.3-4.3c6.2-0.3,9-2.1,8.1-2.2c-0.8-0.1-1.9-1.7-2.4-2.3c2.7-2.4,7.9-8.1,8.4-8.5
			c0.8-0.6,8.4,8.5,11.8,9.3c2.4,1.1,2.1-0.9,2.1-0.9c-1.5-0.1-6.6-10.2-7.1-12.7c-0.1-0.3-2.3-0.9-2.3-0.9c0.1-0.3,2.9-0.8,3-1.1
			c2-10.2,8-17.8,9.1-18.1l0.9,0.2c0.1-1.2,1.4-3.8,2.9-5.9C146.8,60.6,133.1,81.8,131.5,85.2z M29.9,99.2c0.3-0.4,1.1-0.3,1.8,0.2
			c0.7,0.5,1,1.2,0.7,1.6c-0.3,0.4-1.1,0.3-1.8-0.2C29.9,100.3,29.6,99.6,29.9,99.2z"/>
		<g>
			<path class="st2" d="M144.8,45.9c-3.4-7.5-8.1-14.2-14-19.8l-2.2,3.9c6.3,6.2,11.1,13.7,14.1,22.2c0,0,0,0,0,0
				C143.6,50.2,144.3,48.1,144.8,45.9C144.8,46,144.8,45.9,144.8,45.9z"/>
			<path class="st2" d="M30.5,81.4c-0.6-3.3-0.9-6.6-0.9-10c0-32.1,26-58.2,58.2-58.2c9.8,0,19,2.4,27.1,6.7
				c0.1,0.1,0.2,0.1,0.3,0.2l1.9-3.8C108.3,11.6,98.4,9,87.8,9c-34.5,0-62.4,28-62.4,62.4c0,4.8,0.6,9.4,1.6,13.9l0.1,0
				C28.1,83.9,29.2,82.6,30.5,81.4z"/>
		</g>
		<path class="st3" d="M84,71.8"/>
		<g>
			<path class="st4" d="M154.7,59.9c-2.9-0.5-5.3,1.5-5.3,1.5c-0.9-5.5-2.4-10.7-4.6-15.6C140.4,63.7,123.5,77,103.4,77
				c-7.1,0-13.8-1.7-19.7-4.6l0,0c-6.1-2.7-12.8-4.2-20-4.2c-14.9,0-28.2,6.6-36.8,16.9l0,0c0.5,2.4,1.2,4.8,2,7
				c0.1,0.2,0,0.1,0.1,0.3c0,0-0.8,1.4-1,1.9c-0.5,1-1.2,2.4-1.2,3.8c0,0.9,0.2,1.8,0.9,2.8c1.8,2.5,4.9,4.1,7.7,4.5l0.1,0
				c11.2,17,30.4,28.2,52.2,28.2c23.9,0,44.6-13.4,55.1-33.1l0,0.1c0.9,0.7,1.8,1.2,2.6,1.4c1.3,0.6,2.4,0.6,3.2,0
				c0.7-0.5,1-1.4,1-2.1c0-0.1,0-0.3,0-0.4l-0.2-1.2c0,0-0.6,0-0.9-0.1c-0.5-0.5-1.6-2.1-2.7-4.1l0-0.1c2.8-7.1,4.4-14.9,4.4-23
				c0-0.5,0-0.9,0-1.4l0.1-0.1c0.4-0.5,0.7-0.9,1-1.1c0.1,0,1.8,0.3,1.8,0.3l0.2-1.5c0.1-0.7,1.1-2.9,2.6-5.2l1.3-2L154.7,59.9z
				 M151.7,67.4l-0.9-0.2c-1.1,0.3-7.1,7.9-9.1,18.1c-0.1,0.3-2.9,0.8-3,1.1c0,0,2.2,0.6,2.3,0.9c0.5,2.5,5.5,12.6,7.1,12.7
				c0,0,0.3,2-2.1,0.9c-3.4-0.9-10.9-9.9-11.8-9.3c-0.6,0.4-5.7,6.1-8.4,8.5c0.4,0.7,1.6,2.3,2.4,2.3c0.9,0.1-1.9,1.8-8.1,2.2
				c-2.4,1.6-4.8,3.1-7.3,4.3c-2,1.3-4.5,2.5-7.1,3c-0.3,0.1-0.5,0.2-0.8,0.3c-0.3,0.5-1,2,0.7,4.5c1.7,2.6-5.9-1.1-8.2-2.5
				c-8,1.6-15.2,1.5-20.4,0.7c-1.6-0.1-3.2-0.2-4.7-0.4c0,0-1.2,7.2,2.9,11.5c0,0-0.7,1.9-4-0.4c-3.3-2.3-9.7-10.1-11.7-16.3
				c0,0-0.4-0.1-1-0.4l0,0c-0.1-0.1-1.8-2.3,0.5-5.1l-0.6-0.5c-1.7,2.1-1.5,4-1.1,5.1c-0.5-0.2-1.1-0.5-1.8-0.9
				c-0.4-0.6-1.3-2.5,0.7-5l-0.6-0.5c-1.6,1.9-1.5,3.7-1.2,4.8c-0.7-0.4-1.3-0.8-2-1.3c-0.3-0.9-0.4-2.6,1.5-4.4l-0.5-0.6
				c-1.7,1.6-2,3.2-1.9,4.3c-0.9-0.6-1.8-1.3-2.7-2.1c-2-1.5-4.3-4.6-5.3-4.8c-1.9,0.7-1.9,5.1-4.5,6.1c-2.2,1-7.5-0.4-9.9-3.8
				c-1.8-2.5,0.7-5,1.1-6.8c0,0,0.4-2.8,3.2-5c0,0,2.8-6.1,7.5-7.7c2.5-0.9,5.4-3.6,8.6-3.8c2.6-0.1,9.9,2.7,10.3,4.5
				c0.3,1.8-2.7,3.1-5.1,4c0,0-1.1,0.6-1.8,1.4c2.3,0.7,5.8,1.9,7.2,2.2c3.3,0.8,5.5,2.2,11.9,3.6c1.2,0,2.4-0.2,3.2-0.9
				c0,0,11.7-15.1,15.3-12.7c0,0-3.9,14.5,1.2,16.2c0,0,1,0.2,2.7,0.3c4.6,0.2,9.2,0.1,13.5-0.3c1.9-0.3,3.8-0.7,5.7-1.3
				c4-1.3,5.2-5.6,7.1-5.7c0.5,1.6,1.9,3.2,1.9,3.2c1.6-0.1,3-0.6,4.2-1.2c0.2-0.1,0.4-0.2,0.6-0.3c2.4-1.5,3.7-3.6,4.4-4.7
				c1.6-3.4,15.3-24.6,23.1-23.6C153.1,63.6,151.9,66.2,151.7,67.4z M31.6,99.3c-0.7-0.5-1.5-0.6-1.8-0.2c-0.3,0.4,0,1.1,0.7,1.6
				c0.7,0.5,1.5,0.6,1.8,0.2C32.6,100.5,32.3,99.8,31.6,99.3z"/>
		</g>
		<g>
			<path class="st0" d="M80.4,56.2c3.3-1.3,5.3-3.5,5.8-6.7c15.5-4.5,16-22.3,16-22.5c0-0.6-0.1-1.2-0.2-1.7
				c-0.1-0.6-0.2-1.2-0.2-1.7c0-1.1,0.3-2,1.7-2.6l-0.4-0.9c-2.7,1.3-2.4,3.6-2.1,5.4c0.1,0.6,0.2,1.1,0.2,1.6
				c0,0.2-0.4,17.5-15.5,21.6l-0.3,0.1l0,0.3c-0.4,2.9-2.1,5-5.2,6.2c-8.5,3.3-23.8-1.1-28.1-4.7l-0.7,0.8
				C55.7,55,71.6,59.5,80.4,56.2z"/>
		</g>
		<path class="st0" d="M137.4,9.3c0.2,0,0.3,0.2,0.3,0.4c0,0.2-0.2,0.4-0.3,0.4c-0.2,0-0.3-0.2-0.3-0.4
			C137.1,9.5,137.2,9.3,137.4,9.3z"/>
		<path class="st0" d="M136.4,9.3c0.2,0,0.3,0.2,0.3,0.4c0,0.2-0.2,0.4-0.3,0.4c-0.2,0-0.3-0.2-0.3-0.4
			C136.1,9.5,136.2,9.3,136.4,9.3z"/>
		<path class="st0" d="M131.5,9.9l0.8,1.4l-0.4,0.7c0,0-2.3,0-2.5-1.4C129.3,9.3,131.5,9.9,131.5,9.9z"/>
		<g>
			<path class="st5" d="M5.2,147.5h2.4c1.4,0,2.3,0.1,2.8,0.2c0.7,0.2,1.3,0.5,1.7,1.1c0.4,0.5,0.7,1.2,0.7,2c0,0.8-0.2,1.5-0.6,2
				c-0.4,0.5-1,0.9-1.8,1.1c-0.6,0.1-1.6,0.2-3.1,0.2H6.4v5.7H5.2V147.5z M6.4,148.7v4.1l2.1,0c0.8,0,1.4-0.1,1.8-0.2
				c0.4-0.2,0.7-0.4,0.9-0.7c0.2-0.3,0.3-0.7,0.3-1.1c0-0.4-0.1-0.8-0.3-1.1c-0.2-0.3-0.5-0.6-0.9-0.7c-0.4-0.1-0.9-0.2-1.8-0.2H6.4
				z"/>
			<path class="st5" d="M25.9,150.7v9h-1.2v-1.6c-0.5,0.6-1,1-1.7,1.3c-0.6,0.3-1.3,0.4-2,0.4c-1.3,0-2.4-0.5-3.3-1.4
				c-0.9-0.9-1.4-2.1-1.4-3.4c0-1.3,0.5-2.4,1.4-3.3c0.9-0.9,2-1.4,3.3-1.4c0.7,0,1.4,0.2,2,0.5c0.6,0.3,1.1,0.8,1.6,1.4v-1.7H25.9z
				 M21.2,151.6c-0.7,0-1.3,0.2-1.8,0.5c-0.5,0.3-1,0.8-1.3,1.3c-0.3,0.6-0.5,1.2-0.5,1.8c0,0.6,0.2,1.2,0.5,1.8
				c0.3,0.6,0.8,1,1.3,1.4c0.6,0.3,1.1,0.5,1.8,0.5c0.6,0,1.2-0.2,1.8-0.5c0.6-0.3,1-0.8,1.3-1.3c0.3-0.5,0.5-1.2,0.5-1.8
				c0-1-0.3-1.9-1-2.6C23,151.9,22.2,151.6,21.2,151.6z"/>
			<path class="st5" d="M29.7,150.7h1.2v1.3c0.4-0.5,0.7-0.9,1.1-1.2c0.4-0.3,0.8-0.4,1.2-0.4c0.3,0,0.7,0.1,1,0.3l-0.6,1
				c-0.2-0.1-0.5-0.2-0.6-0.2c-0.4,0-0.8,0.2-1.1,0.5c-0.4,0.3-0.6,0.8-0.8,1.5c-0.1,0.5-0.2,1.6-0.2,3.1v3.1h-1.2V150.7z"/>
			<path class="st5" d="M45.9,150.7V163h-1.2v-4.9c-0.5,0.6-1,1-1.6,1.3c-0.6,0.3-1.3,0.4-2,0.4c-1.3,0-2.4-0.5-3.3-1.4
				c-0.9-0.9-1.4-2.1-1.4-3.4c0-1.3,0.5-2.4,1.4-3.3c0.9-0.9,2-1.4,3.3-1.4c0.7,0,1.4,0.2,2,0.5c0.6,0.3,1.1,0.8,1.6,1.4v-1.7H45.9z
				 M41.2,151.6c-0.6,0-1.2,0.2-1.8,0.5c-0.5,0.3-1,0.8-1.3,1.3c-0.3,0.6-0.5,1.2-0.5,1.8c0,0.6,0.2,1.2,0.5,1.8
				c0.3,0.6,0.8,1,1.3,1.4c0.6,0.3,1.1,0.5,1.8,0.5c0.6,0,1.2-0.2,1.8-0.5c0.6-0.3,1-0.8,1.3-1.3c0.3-0.5,0.5-1.2,0.5-1.8
				c0-1-0.3-1.9-1-2.6C43,151.9,42.2,151.6,41.2,151.6z"/>
			<path class="st5" d="M50,150.7h1.2v4.2c0,1,0.1,1.7,0.2,2.1c0.2,0.6,0.5,1,1,1.3c0.5,0.3,1,0.5,1.7,0.5c0.7,0,1.2-0.2,1.7-0.5
				c0.5-0.3,0.8-0.7,1-1.2c0.1-0.3,0.2-1.1,0.2-2.2v-4.2H58v4.4c0,1.2-0.1,2.2-0.4,2.8c-0.3,0.6-0.7,1.1-1.3,1.5
				c-0.6,0.4-1.3,0.5-2.2,0.5c-0.9,0-1.6-0.2-2.2-0.5c-0.6-0.4-1-0.9-1.3-1.5c-0.3-0.6-0.4-1.6-0.4-2.9V150.7z"/>
			<path class="st5" d="M69.9,156.7l1,0.5c-0.3,0.6-0.7,1.1-1.1,1.5c-0.4,0.4-0.9,0.7-1.4,0.9c-0.5,0.2-1.1,0.3-1.8,0.3
				c-1.5,0-2.6-0.5-3.5-1.4c-0.8-1-1.3-2.1-1.3-3.3c0-1.1,0.4-2.2,1.1-3.1c0.9-1.1,2.1-1.7,3.6-1.7c1.5,0,2.8,0.6,3.7,1.8
				c0.7,0.8,1,1.9,1,3.1H63c0,1,0.4,1.9,1,2.6c0.7,0.7,1.5,1,2.4,1c0.5,0,0.9-0.1,1.3-0.2c0.4-0.2,0.8-0.4,1.1-0.6
				C69.2,157.7,69.5,157.3,69.9,156.7z M69.9,154.3c-0.2-0.6-0.4-1.1-0.7-1.5c-0.3-0.4-0.7-0.7-1.2-0.9c-0.5-0.2-1-0.3-1.5-0.3
				c-0.9,0-1.7,0.3-2.3,0.9c-0.5,0.4-0.8,1-1.1,1.9H69.9z"/>
			<path class="st5" d="M81.6,159.7v-12.2h0.3l8.1,9.3v-9.3h1.2v12.2H91l-8.1-9.3v9.3H81.6z"/>
			<path class="st5" d="M104.8,150.7v9h-1.2v-1.6c-0.5,0.6-1,1-1.6,1.3c-0.6,0.3-1.3,0.4-2,0.4c-1.3,0-2.4-0.5-3.3-1.4
				c-0.9-0.9-1.4-2.1-1.4-3.4c0-1.3,0.5-2.4,1.4-3.3c0.9-0.9,2-1.4,3.3-1.4c0.7,0,1.4,0.2,2,0.5c0.6,0.3,1.1,0.8,1.6,1.4v-1.7H104.8
				z M100.1,151.6c-0.7,0-1.2,0.2-1.8,0.5c-0.5,0.3-1,0.8-1.3,1.3c-0.3,0.6-0.5,1.2-0.5,1.8c0,0.6,0.2,1.2,0.5,1.8
				c0.3,0.6,0.8,1,1.3,1.4c0.6,0.3,1.1,0.5,1.8,0.5c0.6,0,1.2-0.2,1.8-0.5c0.6-0.3,1-0.8,1.3-1.3c0.3-0.5,0.5-1.2,0.5-1.8
				c0-1-0.3-1.9-1-2.6C101.9,151.9,101.1,151.6,100.1,151.6z"/>
			<path class="st5" d="M117.8,152.5l-0.9,0.6c-0.8-1.1-1.9-1.6-3.3-1.6c-1.1,0-2,0.4-2.8,1.1c-0.7,0.7-1.1,1.6-1.1,2.6
				c0,0.7,0.2,1.3,0.5,1.9c0.3,0.6,0.8,1,1.4,1.4c0.6,0.3,1.2,0.5,2,0.5c1.3,0,2.4-0.5,3.3-1.6l0.9,0.6c-0.4,0.7-1,1.2-1.7,1.5
				c-0.7,0.4-1.6,0.5-2.5,0.5c-1.4,0-2.6-0.5-3.6-1.4c-0.9-0.9-1.4-2-1.4-3.3c0-0.9,0.2-1.7,0.7-2.4c0.4-0.7,1-1.3,1.8-1.8
				c0.8-0.4,1.6-0.6,2.6-0.6c0.6,0,1.2,0.1,1.7,0.3c0.6,0.2,1,0.4,1.4,0.7C117.2,151.7,117.6,152.1,117.8,152.5z"/>
			<path class="st5" d="M122.2,146.9c0.3,0,0.5,0.1,0.7,0.3c0.2,0.2,0.3,0.4,0.3,0.7c0,0.3-0.1,0.5-0.3,0.7
				c-0.2,0.2-0.4,0.3-0.7,0.3c-0.3,0-0.5-0.1-0.7-0.3c-0.2-0.2-0.3-0.4-0.3-0.7c0-0.3,0.1-0.5,0.3-0.7
				C121.7,147,122,146.9,122.2,146.9z M121.7,150.7h1.2v9h-1.2V150.7z"/>
			<path class="st5" d="M131.2,150.4c1.4,0,2.6,0.5,3.5,1.5c0.8,0.9,1.3,2,1.3,3.3c0,1.3-0.4,2.4-1.3,3.3c-0.9,0.9-2,1.4-3.4,1.4
				c-1.4,0-2.5-0.5-3.4-1.4c-0.9-0.9-1.3-2-1.3-3.3c0-1.3,0.4-2.3,1.2-3.3C128.6,150.9,129.8,150.4,131.2,150.4z M131.2,151.6
				c-1,0-1.8,0.4-2.5,1.1c-0.7,0.7-1,1.6-1,2.6c0,0.7,0.2,1.3,0.5,1.8c0.3,0.6,0.7,1,1.3,1.3c0.5,0.3,1.1,0.5,1.8,0.5
				c0.6,0,1.2-0.2,1.8-0.5c0.5-0.3,1-0.7,1.3-1.3c0.3-0.6,0.5-1.2,0.5-1.8c0-1-0.3-1.9-1-2.6C133,151.9,132.1,151.6,131.2,151.6z"/>
			<path class="st5" d="M139.8,150.7h1.2v1.6c0.5-0.6,1-1.1,1.5-1.4c0.6-0.3,1.2-0.5,1.8-0.5c0.7,0,1.3,0.2,1.8,0.5
				c0.5,0.3,0.9,0.8,1.2,1.4c0.2,0.6,0.4,1.5,0.4,2.7v4.7h-1.2v-4.3c0-1,0-1.7-0.1-2.1c-0.1-0.6-0.4-1-0.8-1.3
				c-0.4-0.3-0.9-0.5-1.5-0.5c-0.7,0-1.3,0.2-1.9,0.7c-0.6,0.5-0.9,1-1.1,1.7c-0.1,0.4-0.2,1.3-0.2,2.5v3.3h-1.2V150.7z"/>
			<path class="st5" d="M160.9,150.7v9h-1.2v-1.6c-0.5,0.6-1,1-1.7,1.3c-0.6,0.3-1.3,0.4-2,0.4c-1.3,0-2.4-0.5-3.3-1.4
				c-0.9-0.9-1.4-2.1-1.4-3.4c0-1.3,0.5-2.4,1.4-3.3c0.9-0.9,2-1.4,3.3-1.4c0.7,0,1.4,0.2,2,0.5c0.6,0.3,1.1,0.8,1.6,1.4v-1.7H160.9
				z M156.2,151.6c-0.7,0-1.2,0.2-1.8,0.5c-0.5,0.3-1,0.8-1.3,1.3c-0.3,0.6-0.5,1.2-0.5,1.8c0,0.6,0.2,1.2,0.5,1.8
				c0.3,0.6,0.8,1,1.3,1.4c0.6,0.3,1.1,0.5,1.8,0.5c0.6,0,1.2-0.2,1.8-0.5c0.6-0.3,1-0.8,1.3-1.3c0.3-0.5,0.5-1.2,0.5-1.8
				c0-1-0.3-1.9-1-2.6C158,151.9,157.2,151.6,156.2,151.6z"/>
			<path class="st5" d="M165,147.2h1.2v12.5H165V147.2z"/>
			<path class="st6" d="M19.3,176.6l-2.2,2.2c-1.4-1.5-3-2.2-4.9-2.2c-1.6,0-3,0.5-4.1,1.6c-1.1,1.1-1.6,2.4-1.6,3.9
				c0,1.6,0.6,2.9,1.7,4c1.1,1.1,2.5,1.6,4.2,1.6c1.1,0,2-0.2,2.7-0.7c0.7-0.4,1.3-1.1,1.8-2.1h-4.7V182h8.2l0,0.7
				c0,1.4-0.4,2.8-1.1,4.1c-0.7,1.3-1.7,2.3-2.9,2.9c-1.2,0.7-2.6,1-4.2,1c-1.7,0-3.2-0.4-4.5-1.1c-1.3-0.7-2.4-1.8-3.2-3.2
				c-0.8-1.4-1.2-2.8-1.2-4.4c0-2.2,0.7-4,2.2-5.6c1.7-1.9,3.9-2.9,6.6-2.9c1.4,0,2.8,0.3,4,0.8C17.2,174.8,18.3,175.5,19.3,176.6z"
				/>
			<path class="st6" d="M31.2,174h3.1l6.3,16.4h-3.2l-1.3-3.4h-6.7l-1.3,3.4h-3.2L31.2,174z M32.8,178.3l-2.2,5.6H35L32.8,178.3z"/>
			<path class="st6" d="M46.1,174h3.1v13.4h4.6v3h-7.7V174z"/>
			<path class="st6" d="M64.1,174h3.1l6.3,16.4h-3.2L69,187h-6.7l-1.3,3.4h-3.2L64.1,174z M65.7,178.3l-2.2,5.6h4.4L65.7,178.3z
				 M67.1,168.8H70l-3.3,3.5H65L67.1,168.8z"/>
			<path class="st6" d="M78.9,174h3.3c1.8,0,3.1,0.2,3.9,0.5c0.8,0.3,1.4,0.9,1.9,1.6c0.5,0.7,0.7,1.6,0.7,2.7
				c0,1.1-0.3,2.1-0.9,2.9c-0.6,0.8-1.4,1.3-2.4,1.6c-0.6,0.2-1.7,0.3-3.3,0.3v6.9h-3.1V174z M82,180.4h1c0.8,0,1.3-0.1,1.6-0.2
				c0.3-0.1,0.5-0.3,0.7-0.6c0.2-0.3,0.3-0.6,0.3-0.9c0-0.6-0.2-1.1-0.7-1.4c-0.4-0.2-1-0.3-2-0.3H82V180.4z"/>
			<path class="st6" d="M99.7,174h3.1l6.3,16.4h-3.2l-1.3-3.4h-6.7l-1.3,3.4h-3.2L99.7,174z M101.2,178.3l-2.2,5.6h4.4L101.2,178.3z
				"/>
			<path class="st6" d="M129.7,176.6l-2.2,2.2c-1.4-1.5-3-2.2-4.9-2.2c-1.6,0-3,0.5-4.1,1.6c-1.1,1.1-1.6,2.4-1.6,3.9
				c0,1.6,0.6,2.9,1.7,4c1.1,1.1,2.5,1.6,4.2,1.6c1.1,0,2-0.2,2.7-0.7c0.7-0.4,1.3-1.1,1.8-2.1h-4.7V182h8.2l0,0.7
				c0,1.4-0.4,2.8-1.1,4.1c-0.7,1.3-1.7,2.3-2.9,2.9c-1.2,0.7-2.6,1-4.2,1c-1.7,0-3.2-0.4-4.6-1.1c-1.3-0.7-2.4-1.8-3.2-3.2
				c-0.8-1.4-1.2-2.8-1.2-4.4c0-2.2,0.7-4,2.2-5.6c1.7-1.9,3.9-2.9,6.6-2.9c1.4,0,2.8,0.3,4,0.8
				C127.6,174.8,128.7,175.5,129.7,176.6z"/>
			<path class="st6" d="M144.4,173.6c2.3,0,4.3,0.8,6,2.5c1.7,1.7,2.5,3.7,2.5,6.1c0,2.4-0.8,4.4-2.5,6.1c-1.6,1.7-3.6,2.5-6,2.5
				c-2.5,0-4.5-0.8-6.1-2.5c-1.6-1.7-2.4-3.7-2.4-6.1c0-1.6,0.4-3,1.1-4.3c0.8-1.3,1.8-2.4,3.1-3.1
				C141.4,173.9,142.9,173.6,144.4,173.6z M144.3,176.6c-1.5,0-2.8,0.5-3.8,1.6c-1,1.1-1.5,2.4-1.5,4c0,1.8,0.7,3.2,2,4.3
				c1,0.8,2.2,1.2,3.5,1.2c1.5,0,2.7-0.5,3.8-1.6c1-1.1,1.6-2.4,1.6-4c0-1.6-0.5-2.9-1.6-4C147.1,177.1,145.9,176.6,144.3,176.6z"/>
			<path class="st6" d="M167.4,176.2l-2.3,2.1c-0.8-1.1-1.6-1.7-2.5-1.7c-0.4,0-0.7,0.1-1,0.3c-0.3,0.2-0.4,0.5-0.4,0.7
				c0,0.3,0.1,0.5,0.3,0.8c0.3,0.3,1,1,2.3,2.1c1.2,1,1.9,1.6,2.2,1.9c0.6,0.6,1.1,1.2,1.3,1.8c0.3,0.6,0.4,1.2,0.4,1.9
				c0,1.3-0.5,2.4-1.4,3.3c-0.9,0.9-2.1,1.3-3.6,1.3c-1.2,0-2.2-0.3-3-0.9c-0.9-0.6-1.6-1.5-2.2-2.7l2.6-1.6
				c0.8,1.4,1.7,2.2,2.7,2.2c0.5,0,1-0.2,1.3-0.5c0.4-0.3,0.5-0.7,0.5-1.1c0-0.4-0.1-0.7-0.4-1.1c-0.3-0.4-0.9-0.9-1.8-1.7
				c-1.8-1.5-2.9-2.6-3.5-3.4c-0.5-0.8-0.8-1.6-0.8-2.4c0-1.1,0.4-2.1,1.3-2.9c0.9-0.8,1.9-1.2,3.2-1.2c0.8,0,1.6,0.2,2.3,0.6
				C165.7,174.5,166.5,175.2,167.4,176.2z"/>
			<path class="st5" d="M48.9,198.1h6.6v1.1h-5.5v3.6h5.4v1.1h-5.4v4.6h5.4v1.1h-6.6V198.1z"/>
			<path class="st5" d="M67.3,202.9l-0.9,0.5c-0.8-1-1.8-1.5-3.1-1.5c-1,0-1.9,0.3-2.6,1c-0.7,0.7-1,1.5-1,2.5
				c0,0.6,0.2,1.2,0.5,1.8c0.3,0.6,0.8,1,1.3,1.3c0.6,0.3,1.2,0.5,1.9,0.5c1.3,0,2.3-0.5,3.1-1.5l0.9,0.6c-0.4,0.6-1,1.1-1.7,1.4
				c-0.7,0.3-1.5,0.5-2.4,0.5c-1.4,0-2.5-0.4-3.4-1.3c-0.9-0.9-1.3-1.9-1.3-3.1c0-0.8,0.2-1.6,0.6-2.3c0.4-0.7,1-1.3,1.7-1.7
				c0.7-0.4,1.5-0.6,2.5-0.6c0.6,0,1.1,0.1,1.6,0.3c0.5,0.2,1,0.4,1.3,0.7C66.7,202.1,67.1,202.4,67.3,202.9z"/>
			<path class="st5" d="M70.9,201.1H72v4c0,1,0.1,1.6,0.2,2c0.2,0.5,0.5,0.9,0.9,1.2c0.4,0.3,1,0.5,1.6,0.5c0.6,0,1.1-0.2,1.6-0.4
				c0.4-0.3,0.7-0.7,0.9-1.2c0.1-0.3,0.2-1,0.2-2.1v-4h1.1v4.2c0,1.2-0.1,2.1-0.4,2.7c-0.3,0.6-0.7,1.1-1.3,1.4
				c-0.6,0.3-1.3,0.5-2.1,0.5c-0.8,0-1.5-0.2-2.1-0.5c-0.6-0.3-1-0.8-1.3-1.4c-0.3-0.6-0.4-1.5-0.4-2.7V201.1z"/>
			<path class="st5" d="M91,201.1v8.6h-1.1v-1.5c-0.5,0.6-1,1-1.6,1.3c-0.6,0.3-1.2,0.4-1.9,0.4c-1.2,0-2.2-0.4-3.1-1.3
				c-0.9-0.9-1.3-1.9-1.3-3.2c0-1.2,0.4-2.3,1.3-3.2c0.9-0.9,1.9-1.3,3.1-1.3c0.7,0,1.3,0.2,1.9,0.5c0.6,0.3,1.1,0.8,1.5,1.4v-1.6
				H91z M86.6,202c-0.6,0-1.2,0.2-1.7,0.5c-0.5,0.3-0.9,0.7-1.2,1.3c-0.3,0.5-0.5,1.1-0.5,1.7c0,0.6,0.2,1.2,0.5,1.7
				c0.3,0.6,0.7,1,1.2,1.3c0.5,0.3,1.1,0.5,1.7,0.5c0.6,0,1.2-0.2,1.7-0.5c0.5-0.3,0.9-0.7,1.2-1.2c0.3-0.5,0.4-1.1,0.4-1.8
				c0-1-0.3-1.8-1-2.5C88.3,202.3,87.5,202,86.6,202z"/>
			<path class="st5" d="M103.6,197.8v11.9h-1.1v-1.5c-0.5,0.6-1,1-1.6,1.3c-0.6,0.3-1.2,0.4-1.9,0.4c-1.2,0-2.2-0.4-3.1-1.3
				c-0.9-0.9-1.3-1.9-1.3-3.2c0-1.2,0.4-2.3,1.3-3.2c0.9-0.9,1.9-1.3,3.1-1.3c0.7,0,1.3,0.2,1.9,0.4c0.6,0.3,1.1,0.7,1.5,1.3v-4.9
				H103.6z M99.2,202c-0.6,0-1.2,0.2-1.7,0.5c-0.5,0.3-0.9,0.7-1.2,1.3c-0.3,0.5-0.5,1.1-0.5,1.7c0,0.6,0.2,1.2,0.5,1.7
				c0.3,0.6,0.7,1,1.2,1.3c0.5,0.3,1.1,0.5,1.7,0.5c0.6,0,1.2-0.2,1.7-0.5c0.5-0.3,1-0.7,1.2-1.2c0.3-0.5,0.4-1.1,0.4-1.8
				c0-1-0.3-1.8-1-2.5C100.9,202.3,100.1,202,99.2,202z"/>
			<path class="st5" d="M111.8,200.9c1.3,0,2.4,0.5,3.3,1.4c0.8,0.9,1.2,1.9,1.2,3.1c0,1.2-0.4,2.2-1.2,3.1
				c-0.8,0.9-1.9,1.3-3.2,1.3c-1.3,0-2.4-0.4-3.2-1.3c-0.8-0.9-1.2-1.9-1.2-3.1c0-1.2,0.4-2.2,1.2-3.1
				C109.4,201.4,110.5,200.9,111.8,200.9z M111.8,202c-0.9,0-1.7,0.3-2.3,1c-0.7,0.7-1,1.5-1,2.5c0,0.6,0.1,1.2,0.4,1.7
				c0.3,0.5,0.7,1,1.2,1.2c0.5,0.3,1.1,0.4,1.7,0.4c0.6,0,1.2-0.1,1.7-0.4c0.5-0.3,0.9-0.7,1.2-1.2c0.3-0.5,0.4-1.1,0.4-1.7
				c0-1-0.3-1.8-1-2.5C113.5,202.3,112.7,202,111.8,202z"/>
			<path class="st5" d="M119.5,201.1h1.1v1.3c0.3-0.5,0.7-0.9,1.1-1.1c0.4-0.2,0.8-0.4,1.2-0.4c0.3,0,0.6,0.1,1,0.3l-0.6,0.9
				c-0.2-0.1-0.4-0.2-0.6-0.2c-0.4,0-0.7,0.2-1.1,0.5c-0.3,0.3-0.6,0.8-0.8,1.4c-0.1,0.5-0.2,1.5-0.2,3v2.9h-1.1V201.1z"/>
		</g>
	</g>
</g>
</svg>
