<?xml version="1.0" encoding="utf-8"?>
<!-- Generator: Adobe Illustrator 19.0.0, SVG Export Plug-In . SVG Version: 6.00 Build 0)  -->
<svg version="1.1" xmlns="http://www.w3.org/2000/svg" xmlns:xlink="http://www.w3.org/1999/xlink" x="0px" y="0px"
	 viewBox="0 0 200.6 211.5" style="enable-background:new 0 0 200.6 211.5;" xml:space="preserve">
<style type="text/css">
	.st0{fill:#F5C400;}
	.st1{fill:#001689;}
	.st2{fill:#E2231A;}
	.st3{fill:#58595B;}
</style>
<g id="Layer_1">
	<g>
		<g>
			<g>
				<path class="st0" d="M146.9,13.4c-17.2,2.2-29,12.7-35,31.3c-3,9.2-3.8,18.3-4,23.8c9.7-8.8,22.9-16.3,40.1-17.8
					C152.2,28.1,148.4,16.8,146.9,13.4z"/>
				<path class="st0" d="M94,3.2c-31.4,0-57,26.7-57,59.4c0,2,0.1,4.1,0.3,6.1c0.9,0,1.9-0.1,2.8-0.1c5.7,0,11.1,0.7,16.2,2
					c-0.9-22.5,3.2-31.4,3.4-31.7l0.6-1.4l1.5,0.1c18.4,1,30.2,11,37.2,20.1C97.4,47,92,28.1,72.9,23.4c-0.3-0.1-0.4-0.3-0.4-0.6
					c0-0.3,0.3-0.5,0.5-0.5c0.3,0,23.6,0.4,32.2,29.5c2.7-13,8.9-28.3,23-36.8C118.8,7.6,106.9,3.2,94,3.2z M95,19.4
					c-0.6,1.1-1.6,1.9-2.8,2.2c-0.4,0.1-0.9,0.2-1.3,0.2l0,0c-2,0-3.9-1.4-4.5-3.3c-0.7-2.5,0.7-5,3.1-5.8c0.4-0.1,0.9-0.2,1.3-0.2
					c2,0,3.9,1.4,4.5,3.3C95.7,17.1,95.6,18.3,95,19.4z"/>
				<path class="st1" d="M95.1,107.2l0.1,0.3c0.8,2.1,1.6,4.5,2.3,6.8l0.1,0.3c1.3,4.3,2.4,8.8,3.2,13.3c0.3,2,0.6,3.8,0.7,5
					c38.4-2.1,69.3-35.7,69.3-76c0-0.1,0-0.3,0-0.4c-5.6-1.2-11.1-1.8-16.4-1.7C117.7,55.4,97.2,84.1,90.8,98
					c0.3,0.6,0.9,1.9,1.3,2.6l0.1,0.1c0,0,0,0.1,0,0.1l0,0.1c0.5,1.1,1.1,2.1,1.6,3.3C94.2,105.2,94.7,106.2,95.1,107.2z"/>
				<path class="st0" d="M87.8,92.7c2.8-5.3,7.9-13.4,14.9-20c0,0-0.7-1.7-0.8-1.8c-0.3-0.7-0.7-1.4-1.1-2.2c0-0.1-0.1-0.2-0.1-0.2
					c-0.1-0.2-0.2-0.4-0.3-0.5c-0.1-0.1-0.2-0.3-0.2-0.4c-0.1-0.2-0.2-0.3-0.3-0.5c-0.1-0.2-0.2-0.3-0.3-0.5
					c-0.1-0.2-0.2-0.3-0.3-0.5c-0.1-0.2-0.2-0.4-0.3-0.6c-0.1-0.2-0.2-0.3-0.3-0.5c-0.1-0.2-0.3-0.4-0.4-0.6
					c-0.1-0.2-0.2-0.3-0.3-0.5c-0.1-0.2-0.3-0.4-0.4-0.7c-0.1-0.2-0.2-0.3-0.3-0.5c-0.2-0.2-0.3-0.5-0.5-0.7
					c-0.1-0.2-0.2-0.3-0.3-0.5c-0.2-0.3-0.4-0.6-0.6-0.8c-0.1-0.1-0.2-0.2-0.3-0.3c-0.6-0.8-1.3-1.6-2-2.4c-0.1-0.1-0.2-0.2-0.3-0.3
					c-0.3-0.3-0.5-0.6-0.8-0.9c-0.1-0.1-0.3-0.3-0.4-0.4c-0.3-0.3-0.5-0.5-0.8-0.8c-0.1-0.1-0.3-0.3-0.4-0.4
					c-0.3-0.3-0.5-0.5-0.8-0.8c-0.2-0.1-0.3-0.3-0.5-0.4c-0.3-0.2-0.5-0.5-0.8-0.7c-0.2-0.1-0.3-0.3-0.5-0.4
					c-0.3-0.2-0.6-0.5-0.9-0.7c-0.2-0.1-0.3-0.3-0.5-0.4c-0.3-0.2-0.6-0.5-1-0.7c-0.2-0.1-0.3-0.2-0.5-0.4c-0.4-0.3-0.8-0.5-1.1-0.8
					c-0.1-0.1-0.3-0.2-0.4-0.3c-1.1-0.7-2.2-1.3-3.3-2c-0.2-0.1-0.3-0.2-0.5-0.3c-0.4-0.2-0.8-0.4-1.3-0.6c-0.2-0.1-0.4-0.2-0.7-0.3
					c-0.4-0.2-0.8-0.3-1.2-0.5c-0.2-0.1-0.5-0.2-0.7-0.3c-0.4-0.2-0.8-0.3-1.2-0.4c-0.3-0.1-0.5-0.2-0.8-0.3
					c-0.4-0.1-0.8-0.3-1.2-0.4c-0.3-0.1-0.6-0.2-0.8-0.3c-0.4-0.1-0.8-0.2-1.2-0.3c-0.3-0.1-0.6-0.1-0.9-0.2
					c-0.4-0.1-0.9-0.2-1.3-0.3c-0.3-0.1-0.6-0.1-0.9-0.2c-0.5-0.1-1-0.2-1.5-0.2c-0.3,0-0.5-0.1-0.7-0.1c-0.8-0.1-1.6-0.2-2.3-0.3
					c-1,3.2-3.2,12.4-2.4,29.8c0.6,0.2,1.2,0.5,1.9,0.7c0.3,0.1,0.7,0.3,1,0.4c0.2,0.1,0.5,0.2,0.7,0.3c0.4,0.2,0.9,0.4,1.3,0.6
					c0.1,0,0.2,0.1,0.3,0.1c0.5,0.2,1,0.5,1.5,0.7C75.1,78.2,83,84.9,87.8,92.7z"/>
				<path class="st2" d="M88.2,103.3l-0.1-0.3c-0.6-1.1-1.1-2.1-1.7-3.1C74.2,78.5,53.9,69.8,26.6,74.3c7.6,34,36.8,58.4,70.4,58.8
					c-0.1-1.1-0.3-2.6-0.6-4.3l0-0.1c-0.7-4.4-1.8-8.8-3.1-13.1l-0.1-0.3c-0.6-1.9-1.3-3.8-2-5.6l-0.1-0.3c-0.4-1.1-0.9-2.1-1.3-3.2
					C89.2,105.2,88.8,104.3,88.2,103.3L88.2,103.3z"/>
			</g>
		</g>
		<g>
			<g>
				<path class="st3" d="M36.3,145.9l9,22.8l9-22.8h3.6v26h-2.5v-22.5h-0.1l-8.9,22.5h-2.3l-8.9-22.5h-0.1v22.5h-2.5v-26H36.3z"/>
				<path class="st3" d="M63.8,145.9v3.7h-2.3v-3.7H63.8z M63.8,153.1v18.8h-2.3v-18.8H63.8z"/>
				<path class="st3" d="M69.2,153.1v3.2h0.1c0.4-1.1,1.2-2.1,2.3-2.8c1.1-0.7,2.3-1,3.7-1c1.3,0,2.4,0.2,3.3,0.5
					c0.9,0.3,1.6,0.8,2.1,1.4c0.5,0.6,0.9,1.4,1.1,2.3c0.2,0.9,0.3,1.9,0.3,3v12.1h-2.3v-11.7c0-0.8-0.1-1.5-0.2-2.2
					c-0.1-0.7-0.4-1.3-0.8-1.8c-0.4-0.5-0.9-0.9-1.5-1.2c-0.6-0.3-1.4-0.4-2.3-0.4c-0.9,0-1.7,0.2-2.5,0.5c-0.7,0.3-1.3,0.8-1.8,1.3
					c-0.5,0.6-0.9,1.3-1.2,2c-0.3,0.8-0.4,1.6-0.5,2.6v11h-2.3v-18.8H69.2z"/>
				<path class="st3" d="M87.7,145.9v3.7h-2.3v-3.7H87.7z M87.7,153.1v18.8h-2.3v-18.8H87.7z"/>
				<path class="st3" d="M101.8,156.8c-0.3-0.5-0.6-1-1.1-1.3c-0.5-0.3-1-0.6-1.5-0.7c-0.6-0.2-1.2-0.2-1.9-0.2
					c-0.5,0-1,0.1-1.5,0.2c-0.5,0.1-1,0.3-1.4,0.5c-0.4,0.3-0.8,0.6-1.1,1c-0.3,0.4-0.4,0.9-0.4,1.5c0,0.5,0.1,0.9,0.4,1.3
					c0.3,0.4,0.6,0.7,1,0.9c0.4,0.2,0.8,0.4,1.3,0.6c0.5,0.2,0.9,0.3,1.3,0.4l3.1,0.7c0.7,0.1,1.3,0.3,2,0.5c0.6,0.3,1.2,0.6,1.7,1
					c0.5,0.4,0.9,0.9,1.2,1.5c0.3,0.6,0.5,1.3,0.5,2.2c0,1-0.2,1.9-0.7,2.6c-0.5,0.7-1.1,1.3-1.8,1.7s-1.5,0.8-2.4,1
					c-0.9,0.2-1.8,0.3-2.7,0.3c-2.2,0-4-0.5-5.4-1.6c-1.4-1-2.2-2.7-2.3-5h2.3c0.1,1.6,0.7,2.7,1.7,3.5c1,0.8,2.3,1.2,3.8,1.2
					c0.6,0,1.1-0.1,1.7-0.2c0.6-0.1,1.1-0.3,1.7-0.6c0.5-0.3,0.9-0.7,1.3-1.1c0.3-0.5,0.5-1,0.5-1.7c0-0.6-0.1-1-0.3-1.4
					c-0.2-0.4-0.5-0.7-0.9-0.9c-0.4-0.3-0.8-0.5-1.3-0.6c-0.5-0.2-1-0.3-1.5-0.4l-3-0.7c-0.8-0.2-1.4-0.4-2.1-0.7
					c-0.6-0.3-1.2-0.6-1.7-0.9c-0.5-0.4-0.8-0.8-1.1-1.4c-0.3-0.5-0.4-1.2-0.4-2c0-0.9,0.2-1.8,0.6-2.4c0.4-0.7,1-1.2,1.7-1.6
					c0.7-0.4,1.4-0.7,2.3-0.9c0.8-0.2,1.7-0.3,2.5-0.3c0.9,0,1.8,0.1,2.6,0.4c0.8,0.2,1.5,0.6,2.2,1.1c0.6,0.5,1.1,1.1,1.5,1.9
					c0.4,0.8,0.6,1.6,0.6,2.7h-2.3C102.2,157.9,102,157.3,101.8,156.8z"/>
				<path class="st3" d="M114.6,153.1v1.9h-3.8v12.7c0,0.8,0.1,1.3,0.3,1.8c0.2,0.4,0.7,0.7,1.5,0.7c0.7,0,1.3,0,2-0.1v1.9
					c-0.3,0-0.7,0-1,0c-0.3,0-0.7,0-1,0c-1.5,0-2.6-0.3-3.2-0.9c-0.6-0.6-0.9-1.7-0.9-3.3v-12.9h-3.3v-1.9h3.3v-5.6h2.3v5.6H114.6z"
					/>
				<path class="st3" d="M117.6,165.7c0.2,0.9,0.6,1.7,1.1,2.4c0.5,0.7,1.2,1.3,1.9,1.7c0.8,0.5,1.7,0.7,2.8,0.7
					c1.7,0,3-0.4,3.9-1.3c0.9-0.9,1.6-2,2-3.5h2.3c-0.5,2.1-1.4,3.8-2.7,5c-1.3,1.2-3.1,1.8-5.5,1.8c-1.5,0-2.8-0.3-3.8-0.8
					c-1.1-0.5-2-1.2-2.6-2.1c-0.7-0.9-1.2-2-1.5-3.2c-0.3-1.2-0.5-2.5-0.5-3.8c0-1.2,0.2-2.5,0.5-3.6c0.3-1.2,0.8-2.3,1.5-3.2
					c0.7-0.9,1.6-1.7,2.6-2.3c1.1-0.6,2.4-0.9,3.8-0.9c1.5,0,2.8,0.3,3.9,0.9c1.1,0.6,1.9,1.4,2.6,2.4c0.7,1,1.1,2.1,1.4,3.4
					c0.3,1.3,0.4,2.6,0.4,3.9h-14.5C117.2,164,117.3,164.8,117.6,165.7z M128.9,158.7c-0.3-0.8-0.7-1.5-1.2-2.1
					c-0.5-0.6-1.1-1.1-1.9-1.5c-0.7-0.4-1.6-0.6-2.5-0.6c-1,0-1.8,0.2-2.5,0.6c-0.7,0.4-1.4,0.9-1.9,1.5c-0.5,0.6-0.9,1.3-1.2,2.1
					c-0.3,0.8-0.5,1.6-0.6,2.5h12.2C129.4,160.3,129.2,159.5,128.9,158.7z"/>
				<path class="st3" d="M135.9,153.1v4.4h0.1c0.6-1.5,1.5-2.7,2.7-3.5c1.2-0.8,2.7-1.2,4.4-1.1v2.3c-1,0-2,0.1-2.8,0.4
					c-0.8,0.3-1.6,0.8-2.2,1.4c-0.6,0.6-1.1,1.3-1.4,2.2c-0.3,0.8-0.5,1.8-0.5,2.8v10h-2.3v-18.8H135.9z"/>
				<path class="st3" d="M146.6,145.9v3.7h-2.3v-3.7H146.6z M146.6,153.1v18.8h-2.3v-18.8H146.6z"/>
				<path class="st3" d="M161.7,153.4c1.1,0.5,2,1.2,2.8,2.1c0.8,0.9,1.3,2,1.7,3.2c0.4,1.2,0.6,2.5,0.6,3.8c0,1.4-0.2,2.6-0.6,3.8
					c-0.4,1.2-1,2.3-1.7,3.2c-0.8,0.9-1.7,1.6-2.8,2.1c-1.1,0.5-2.4,0.8-3.8,0.8c-1.4,0-2.7-0.3-3.8-0.8c-1.1-0.5-2-1.2-2.8-2.1
					c-0.8-0.9-1.3-1.9-1.7-3.2c-0.4-1.2-0.6-2.5-0.6-3.8c0-1.4,0.2-2.6,0.6-3.8c0.4-1.2,1-2.3,1.7-3.2c0.8-0.9,1.7-1.6,2.8-2.1
					c1.1-0.5,2.4-0.8,3.8-0.8C159.3,152.6,160.6,152.8,161.7,153.4z M155,155.2c-0.8,0.5-1.5,1.1-2.1,1.8c-0.5,0.8-1,1.6-1.2,2.6
					c-0.3,1-0.4,1.9-0.4,2.9c0,1,0.1,2,0.4,2.9c0.3,1,0.7,1.8,1.2,2.6c0.5,0.8,1.2,1.4,2.1,1.8c0.8,0.5,1.8,0.7,2.9,0.7
					c1.1,0,2.1-0.2,2.9-0.7c0.8-0.5,1.5-1.1,2.1-1.8c0.5-0.8,1-1.6,1.2-2.6c0.3-1,0.4-1.9,0.4-2.9c0-1-0.1-2-0.4-2.9
					c-0.3-1-0.7-1.8-1.2-2.6c-0.5-0.8-1.2-1.4-2.1-1.8c-0.8-0.5-1.8-0.7-2.9-0.7C156.8,154.5,155.8,154.7,155,155.2z"/>
				<path class="st3" d="M20.3,208.3h-2.1v-3.6h-0.1c-1,2.4-4,4.1-6.7,4.1c-5.7,0-8.4-4.6-8.4-9.9c0-5.3,2.7-9.9,8.4-9.9
					c2.8,0,5.5,1.4,6.5,4.1H18v-10.7h2.3V208.3z M11.4,206.9c4.9,0,6.6-4.1,6.6-8c0-3.9-1.7-8-6.6-8c-4.4,0-6.1,4.1-6.1,8
					C5.3,202.8,7.1,206.9,11.4,206.9z"/>
				<path class="st3" d="M24.3,199.5c0,3.3,1.8,7.4,6.2,7.4c3.3,0,5.2-2,5.9-4.8h2.3c-1,4.2-3.4,6.7-8.2,6.7c-6,0-8.5-4.6-8.5-9.9
					c0-4.9,2.5-9.9,8.5-9.9c6,0,8.4,5.3,8.2,10.5H24.3z M36.4,197.6c-0.1-3.4-2.3-6.7-6-6.7c-3.7,0-5.8,3.3-6.2,6.7H36.4z"/>
				<path class="st3" d="M39.4,182.4h2.3v25.9h-2.3V182.4z"/>
				<path class="st3" d="M59.2,182.4H65l9.7,25.9h-5.9l-2-5.8h-9.7l-2,5.8h-5.8L59.2,182.4z M58.6,198.3h6.7l-3.3-9.5H62L58.6,198.3
					z"/>
				<path class="st3" d="M74.5,189.5h4.9v2.5h0.1c1.3-1.9,3.3-3,5.7-3c2.4,0,4.5,0.9,5.5,3.1c1.1-1.6,3.1-3.1,5.7-3.1
					c4,0,6.9,1.8,6.9,6.7v12.6H98v-10.6c0-2.5-0.2-4.6-3.2-4.6c-2.9,0-3.4,2.4-3.4,4.8v10.5h-5.2v-10.5c0-2.2,0.1-4.7-3.1-4.7
					c-1,0-3.5,0.7-3.5,4.3v10.9h-5.2V189.5z"/>
				<path class="st3" d="M105,182.4h5.2v9.4h0.1c1.3-1.9,3.6-2.8,5.9-2.8c3.7,0,7.8,3,7.8,9.9c0,6.9-4,9.9-7.8,9.9
					c-2.8,0-5-0.8-6.2-2.9h-0.1v2.4H105V182.4z M114.3,192.9c-3,0-4.4,2.9-4.4,6c0,3.1,1.3,6,4.4,6c3.1,0,4.4-2.9,4.4-6
					C118.7,195.8,117.4,192.9,114.3,192.9z"/>
				<path class="st3" d="M130.1,186.6H125v-4.2h5.2V186.6z M125,189.5h5.2v18.8H125V189.5z"/>
				<path class="st3" d="M136.2,200.2c0.1,3.3,1.7,4.8,4.6,4.8c2.1,0,3.7-1.3,4.1-2.4h4.5c-1.5,4.4-4.5,6.3-8.8,6.3
					c-5.9,0-9.6-4.1-9.6-9.9c0-5.6,3.9-9.9,9.6-9.9c6.4,0,9.5,5.4,9.1,11.1H136.2z M144.5,196.9c-0.5-2.6-1.6-4-4.1-4
					c-3.3,0-4.2,2.5-4.3,4H144.5z"/>
				<path class="st3" d="M150.4,189.5h4.9v2.6h0.1c1.3-2.1,3.6-3.1,5.7-3.1c5.5,0,6.9,3.1,6.9,7.7v11.5h-5.2v-10.6
					c0-3.1-0.9-4.6-3.3-4.6c-2.8,0-4,1.6-4,5.4v9.8h-5.2V189.5z"/>
				<path class="st3" d="M176,189.5h3.8v3.4H176v9.3c0,1.7,0.4,2.2,2.2,2.2c0.5,0,1.1,0,1.6-0.1v4c-0.9,0.1-2,0.2-3,0.2
					c-3.2,0-5.9-0.7-5.9-4.5V193h-3.1v-3.4h3.1v-5.6h5.2V189.5z"/>
				<path class="st3" d="M184.1,200.2c0.1,3.3,1.7,4.8,4.6,4.8c2.1,0,3.7-1.3,4.1-2.4h4.5c-1.4,4.4-4.5,6.3-8.8,6.3
					c-5.9,0-9.6-4.1-9.6-9.9c0-5.6,3.9-9.9,9.6-9.9c6.4,0,9.5,5.4,9.1,11.1H184.1z M192.4,196.9c-0.5-2.6-1.6-4-4.1-4
					c-3.3,0-4.2,2.5-4.3,4H192.4z"/>
			</g>
		</g>
	</g>
</g>
</svg>
